<svg width="96" height="96" viewBox="0 0 96 96" fill="none" xmlns="http://www.w3.org/2000/svg">
<rect width="96" height="96" rx="11.9999" fill="#CD50FF"/>
<path d="M40.2285 35.5854C42.7533 35.5854 44.8 37.6322 44.8 40.1569C44.8 42.6817 42.7533 44.7284 40.2285 44.7284C37.7038 44.7284 35.657 42.6817 35.657 40.1569C35.657 37.6322 37.7038 35.5854 40.2285 35.5854Z" fill="white"/>
<path fill-rule="evenodd" clip-rule="evenodd" d="M28.7997 15.4708C30.3146 15.4708 31.5427 16.6988 31.5427 18.2137V23.6995H69.4862C71.0011 23.6995 72.2291 24.9275 72.2291 26.4424V64.3859H77.2578C78.7726 64.386 80.0007 65.614 80.0007 67.1289V69.4146C80.0007 70.9295 78.7726 72.1575 77.2578 72.1575H72.2291V77.1862C72.2291 78.7011 71.0011 79.9291 69.4862 79.9291H67.2005C65.6856 79.9291 64.4575 78.7011 64.4575 77.1862V72.1575H26.514C24.9991 72.1575 23.7711 70.9295 23.7711 69.4146V31.4711H18.7424C17.2276 31.4711 15.9995 30.243 15.9995 28.7282V26.4424C15.9995 24.9275 17.2276 23.6995 18.7424 23.6995H23.7711V18.2137C23.7711 16.6988 24.9991 15.4708 26.514 15.4708H28.7997ZM41.7643 64.3859H64.4575V63.8047L53.4015 52.7487L41.7643 64.3859ZM31.5427 63.6167L51.368 43.7914C51.9274 43.232 52.6683 42.9647 53.4011 42.9896C54.1341 42.9645 54.8755 43.2318 55.4351 43.7914L64.4575 52.8139V31.4711H31.5427V63.6167Z" fill="white"/>
</svg>
