<?xml version="1.0" encoding="UTF-8"?>
<svg xmlns="http://www.w3.org/2000/svg" xmlns:xlink="http://www.w3.org/1999/xlink" width="16px" height="16px" viewBox="0 0 16 16" version="1.1">
<g id="surface1">
<path style=" stroke:none;fill-rule:nonzero;fill:rgb(99.607843%,74.117649%,3.137255%);fill-opacity:1;" d="M 8.296875 13.746094 C 6.691406 13.746094 5.148438 13.75 3.601562 13.742188 C 2.609375 13.742188 2.144531 13.289062 2.140625 12.289062 C 2.132812 9.585938 2.136719 6.882812 2.136719 4.179688 C 2.136719 3.9375 2.136719 3.699219 2.136719 3.445312 C 1.65625 3.289062 0.9375 3.496094 0.953125 2.742188 C 0.964844 2.035156 1.613281 2.183594 2.074219 2.105469 C 2.210938 1.644531 2.015625 0.9375 2.769531 0.949219 C 3.476562 0.960938 3.347656 1.597656 3.425781 2.140625 C 3.640625 2.140625 3.855469 2.140625 4.070312 2.140625 C 6.796875 2.140625 9.519531 2.140625 12.246094 2.144531 C 13.316406 2.144531 13.761719 2.589844 13.761719 3.660156 C 13.765625 6.367188 13.761719 9.070312 13.761719 11.773438 C 13.761719 11.992188 13.761719 12.214844 13.761719 12.460938 C 14.25 12.582031 14.957031 12.398438 14.953125 13.136719 C 14.945312 13.832031 14.308594 13.722656 13.808594 13.769531 C 13.707031 14.238281 13.882812 14.929688 13.144531 14.9375 C 12.390625 14.945312 12.59375 14.234375 12.441406 13.746094 C 11.078125 13.746094 9.71875 13.746094 8.296875 13.746094 M 3.382812 4.769531 C 3.382812 7.210938 3.382812 9.648438 3.382812 12.25 C 5.171875 10.503906 6.8125 8.902344 8.457031 7.300781 C 9.230469 6.539062 9.351562 6.542969 10.136719 7.304688 C 10.886719 8.035156 11.644531 8.761719 12.488281 9.578125 C 12.488281 7.425781 12.488281 5.414062 12.488281 3.40625 C 9.441406 3.40625 6.441406 3.40625 3.382812 3.40625 C 3.382812 3.84375 3.382812 4.246094 3.382812 4.769531 M 11.132812 9.996094 C 10.53125 9.40625 9.925781 8.8125 9.238281 8.144531 C 7.839844 9.644531 6.492188 11.085938 5.191406 12.472656 C 7.542969 12.472656 10.019531 12.472656 12.472656 12.472656 C 12.679688 11.722656 12.5 11.160156 11.902344 10.726562 C 11.640625 10.535156 11.429688 10.277344 11.132812 9.996094 Z M 11.132812 9.996094 "/>
<path style=" stroke:none;fill-rule:nonzero;fill:rgb(99.607843%,74.509805%,3.921569%);fill-opacity:1;" d="M 6.199219 4.890625 C 7.273438 5.226562 7.660156 6.09375 7.089844 6.832031 C 6.765625 7.25 6.324219 7.445312 5.796875 7.277344 C 5.261719 7.113281 4.933594 6.75 4.902344 6.171875 C 4.875 5.628906 5.132812 5.234375 5.625 5.015625 C 5.789062 4.941406 5.976562 4.929688 6.199219 4.890625 Z M 6.199219 4.890625 "/>
</g>
</svg>
