<svg width="48" height="48" fill="none" xmlns="http://www.w3.org/2000/svg">
   <path stroke="null" fill="#FEBD08" d="m24.89604,41.23685c-4.81845,-0.00032 -9.45376,0.0106 -14.08902,-0.00501c-2.98025,-0.01003 -4.37293,-1.36551 -4.38272,-4.36032c-0.02657,-8.11166 -0.01015,-16.22348 -0.01076,-24.33522c-0.00004,-0.72164 0,-1.44332 0,-2.19492c-1.44825,-0.46909 -3.59731,0.15189 -3.55727,-2.11372c0.03749,-2.12257 1.98427,-1.67944 3.37202,-1.91597c0.39885,-1.37259 -0.17822,-3.49581 2.07987,-3.46095c2.11748,0.03267 1.73699,1.94682 1.96858,3.57418c0.64687,0 1.29248,0 1.93809,0c8.17276,0.0002 16.34548,-0.0055 24.51821,0.00364c3.21641,0.0036 4.54775,1.33821 4.55107,4.5575c0.00841,8.11174 0.00319,16.22352 0.00344,24.33526c0,0.66053 0,1.32107 0,2.05609c1.46798,0.37026 3.58716,-0.17882 3.56633,2.03644c-0.01965,2.08602 -1.92741,1.75688 -3.42229,1.89583c-0.31255,1.40041 0.21785,3.48165 -1.99478,3.50345c-2.2667,0.02232 -1.65611,-2.11408 -2.11647,-3.5762c-4.08416,0 -8.16265,0 -12.42426,0m-14.75202,-26.92402c0,7.31545 0,14.6309 0,22.43757c5.36822,-5.23724 10.29813,-10.04198 15.22208,-14.85275c2.32978,-2.27624 2.69426,-2.2724 5.04253,0.01711c2.25109,2.19476 4.52005,4.37124 7.05886,6.82407c0,-6.45903 0,-12.4924 0,-18.52427c-9.14593,0 -18.14458,0 -27.3236,0c0,1.3218 0,2.52798 0.00012,4.09827m23.25845,15.67367c-1.81386,-1.77201 -3.62772,-3.54397 -5.68369,-5.55246c-4.20353,4.49474 -8.24741,8.8187 -12.14009,12.98102c7.04811,0 14.47732,0 21.8402,0c0.6241,-2.24992 0.07594,-3.92956 -1.71402,-5.241c-0.77821,-0.57019 -1.41291,-1.33627 -2.30241,-2.18756z" id="svg_2"/>
   <path stroke="null" fill="#FEBE0A" d="m18.59792,14.67c3.2167,1.00431 4.37807,3.61547 2.66717,5.82438c-0.97006,1.25248 -2.28805,1.83622 -3.87873,1.33991c-1.60293,-0.50011 -2.58981,-1.58797 -2.67724,-3.31508c-0.08278,-1.6354 0.68633,-2.81319 2.17005,-3.47365c0.48786,-0.21716 1.05296,-0.26083 1.71875,-0.37556z" id="svg_5"/>
</svg>