<svg width="96" height="96" viewBox="0 0 96 96" fill="none" xmlns="http://www.w3.org/2000/svg">
<rect width="96" height="96" rx="12" fill="#F3B068"/>
<path d="M29.875 19C25.8709 19 22.625 22.2459 22.625 26.25V69.75C22.625 73.7541 25.8709 77 29.875 77H31.6875L33.5 69.75H29.875V26.25V19Z" fill="white"/>
<path d="M66.125 77C70.1291 77 73.375 73.7541 73.375 69.75V33.9028C73.375 32.9642 73.0109 32.0622 72.3594 31.3865L61.4844 20.1088C60.8012 19.4002 59.8593 19 58.875 19H52.6009C52.0619 19 51.625 19.4369 51.625 19.9759C51.625 20.5101 51.844 21.021 52.2308 21.3894L57.3347 26.25L66.125 35.3658V69.75H55.25L57.0625 77H66.125Z" fill="white"/>
<path d="M37.125 24.25V21C37.125 19.8954 38.0204 19 39.125 19H42.375C43.4796 19 44.375 19.8954 44.375 21V26.25H49.625C50.7296 26.25 51.625 27.1454 51.625 28.25V31.5C51.625 32.6046 50.7296 33.5 49.625 33.5H44.375V40.75H49.625C50.7296 40.75 51.625 41.6454 51.625 42.75V46C51.625 47.1046 50.7296 48 49.625 48H44.375V53.25C44.375 54.3546 43.4796 55.25 42.375 55.25H39.125C38.0204 55.25 37.125 54.3546 37.125 53.25V50C37.125 48.8954 38.0204 48 39.125 48H44.375V40.75H39.125C38.0204 40.75 37.125 39.8546 37.125 38.75V35.5C37.125 34.3954 38.0204 33.5 39.125 33.5H44.375V26.25H39.125C38.0204 26.25 37.125 25.3546 37.125 24.25Z" fill="white"/>
<path d="M45.0282 58.875H43.7218C41.9938 58.875 40.5061 60.0947 40.1672 61.7891L37.9922 72.6641C37.5436 74.9072 39.2592 77 41.5468 77H47.2032C49.4908 77 51.2064 74.9072 50.7578 72.6641L48.5828 61.7891C48.2439 60.0947 46.7562 58.875 45.0282 58.875Z" fill="white"/>
</svg>
