<svg width="96" height="96" viewBox="0 0 96 96" fill="none" xmlns="http://www.w3.org/2000/svg">
<rect width="96" height="96" rx="12" fill="#202020"/>
<path d="M32 24V20H30.3431L29.1716 21.1716L32 24ZM28 28L25.1716 25.1716L24 26.3431V28H28ZM28 42L30.8284 44.8284L32 43.6569V42H28ZM28 54H32V52.3431L30.8284 51.1716L28 54ZM28 68H24V69.6569L25.1716 70.8284L28 68ZM32 72L29.1716 74.8284L30.3431 76H32V72ZM22 48L19.1716 45.1716V50.8284L22 48ZM38 24V20H32V24V28H38V24ZM32 24L29.1716 21.1716L25.1716 25.1716L28 28L30.8284 30.8284L34.8284 26.8284L32 24ZM28 28H24V42H28H32V28H28ZM28 54H24V68H28H32V54H28ZM28 68L25.1716 70.8284L29.1716 74.8284L32 72L34.8284 69.1716L30.8284 65.1716L28 68ZM32 72V76H38V72V68H32V72ZM28 42L25.1716 39.1716L19.1716 45.1716L22 48L24.8284 50.8284L30.8284 44.8284L28 42ZM22 48L19.1716 50.8284L25.1716 56.8284L28 54L30.8284 51.1716L24.8284 45.1716L22 48Z" fill="white"/>
<path d="M64 24V20H65.6569L66.8284 21.1716L64 24ZM68 28L70.8284 25.1716L72 26.3431V28H68ZM68 42L65.1716 44.8284L64 43.6569V42H68ZM68 54H64V52.3431L65.1716 51.1716L68 54ZM68 68H72V69.6569L70.8284 70.8284L68 68ZM64 72L66.8284 74.8284L65.6569 76H64V72ZM74 48L76.8284 45.1716V50.8284L74 48ZM58 24V20H64V24V28H58V24ZM64 24L66.8284 21.1716L70.8284 25.1716L68 28L65.1716 30.8284L61.1716 26.8284L64 24ZM68 28H72V42H68H64V28H68ZM68 54H72V68H68H64V54H68ZM68 68L70.8284 70.8284L66.8284 74.8284L64 72L61.1716 69.1716L65.1716 65.1716L68 68ZM64 72V76H58V72V68H64V72ZM68 42L70.8284 39.1716L76.8284 45.1716L74 48L71.1716 50.8284L65.1716 44.8284L68 42ZM74 48L76.8284 50.8284L70.8284 56.8284L68 54L65.1716 51.1716L71.1716 45.1716L74 48Z" fill="white"/>
</svg>
