<svg width="32" height="32" viewBox="0 0 32 32" fill="none" xmlns="http://www.w3.org/2000/svg">
<path d="M7 1.5H20.5859C20.7185 1.50004 20.8457 1.55275 20.9395 1.64648L26.3535 7.06055C26.4472 7.15428 26.5 7.28151 26.5 7.41406V29C26.5 29.8284 25.8284 30.5 25 30.5H7C6.17157 30.5 5.5 29.8284 5.5 29V3C5.5 2.17157 6.17157 1.5 7 1.5Z" fill="white" stroke="#BBBBBB"/>
<path d="M20.5 2V5.1C20.5 5.94008 20.5 6.36012 20.6635 6.68099C20.8073 6.96323 21.0368 7.1927 21.319 7.33651C21.6399 7.5 22.0599 7.5 22.9 7.5H26" stroke="#BBBBBB"/>
<path d="M15.3121 9.332C15.3121 9.332 15.5312 9.79914 15.2199 10.314C15.0643 10.5713 11.1415 11.4062 9.61026 13.5312C8.67276 14.9999 7.23526 19.2499 11.829 22.0624C13.8915 23.1249 14.7665 23.0937 14.7665 23.0937C14.7665 23.0937 13.3915 22.1249 14.2665 21.4687C15.1415 20.8124 16.4228 20.4999 16.7665 19.5937C17.1728 19.9062 17.829 20.5624 18.454 20.4999C18.3915 20.0937 18.2353 19.9374 18.7353 19.8749C19.2353 19.8124 19.4853 19.8124 19.4853 19.8124C19.4853 19.8124 19.0165 19.4374 18.4853 19.4062C17.954 19.3749 16.954 18.3437 16.9853 17.9062C17.6415 17.5312 18.4853 16.9062 18.9853 17.0937C19.4853 17.2812 19.9853 17.5937 20.079 17.8749C20.079 18.0624 19.9853 18.3749 20.3915 18.1249C20.7978 17.8749 20.704 17.7187 20.8603 17.3749C21.0165 17.0312 21.0478 16.9687 20.704 16.6874C20.3603 16.4062 19.5478 15.7499 18.8915 15.9374C18.2353 16.1249 16.8603 16.6562 16.1728 15.9999C16.454 15.3749 16.8915 14.3749 16.6728 13.6874C17.079 13.3749 17.5478 13.0312 17.6103 12.4687C18.079 12.4062 19.079 12.1249 18.8915 11.6249C18.704 11.1249 17.373 8.90086 15.3417 9.33836" fill="white"/>
<path d="M21.798 14.4374C22.1417 13.5311 22.7042 11.9999 22.173 11.9374C21.6417 11.8749 21.048 13.3124 20.8917 13.6874C20.7355 14.0624 20.1105 15.9374 20.4542 16.1874C20.798 16.4374 21.798 14.4374 21.798 14.4374Z" fill="white"/>
<path d="M18.8917 12C18.9895 11.8463 19.0736 11.9799 18.6517 12.0111C18.2298 12.0424 17.726 12.1731 17.6395 12.3564C17.4773 12.7002 17.4229 13.5469 16.8135 13.7344C16.7823 13.9531 16.8135 14.4531 17.6729 14.5469C18.5323 14.6406 18.5635 14.0781 19.0635 14.0938C19.5635 14.1094 19.5167 13.9219 19.3448 13.7813C19.1729 13.6406 18.5792 12.6875 18.5792 12.375C18.5792 12.0625 18.7823 12.1719 18.8917 12ZM11.2198 21.4219C11.2198 21.4219 10.9542 20.7188 11.7354 20.3438C12.5167 19.9688 13.2198 20.2656 13.3604 20.5312C13.501 20.7969 13.126 21.8594 11.7823 21.875C11.4542 21.6094 11.2198 21.4219 11.2198 21.4219Z" fill="#DA687D"/>
<mask id="mask0_1_56" style="mask-type:luminance" maskUnits="userSpaceOnUse" x="20" y="12" width="2" height="3">
<path d="M20.9419 12.4407H21.9182V14.4651H20.9419V12.4407Z" fill="white"/>
</mask>
<g mask="url(#mask0_1_56)">
<g opacity="0.699997">
<path fill-rule="evenodd" clip-rule="evenodd" d="M21.8997 12.4426C21.913 12.4916 21.9091 12.5425 21.9077 12.5937C21.9064 12.6442 21.9017 12.6972 21.8888 12.7488C21.8922 12.7606 21.8863 12.7743 21.8883 12.7864C21.8755 12.8025 21.8822 12.8146 21.8794 12.8287C21.9001 12.8497 21.927 12.8697 21.9154 12.8962C21.9073 12.9149 21.8881 12.9183 21.8696 12.9273C21.8575 12.9712 21.8475 13.0242 21.8375 13.0726C21.8345 13.0875 21.8361 13.1055 21.8317 13.119C21.8212 13.1506 21.8101 13.1808 21.8013 13.2156C21.7939 13.2451 21.8024 13.2996 21.7681 13.3034C21.7549 13.3362 21.7474 13.361 21.7317 13.3919C21.7228 13.397 21.7176 13.3886 21.7101 13.3916C21.7006 13.4025 21.7009 13.4173 21.6921 13.4264C21.6851 13.4336 21.6763 13.4315 21.6713 13.4384C21.6599 13.4541 21.663 13.4772 21.6549 13.4979C21.6403 13.5104 21.628 13.5262 21.6191 13.5441C21.6007 13.5809 21.5973 13.6278 21.5694 13.6563C21.5606 13.6653 21.5456 13.6677 21.5378 13.6766C21.5303 13.685 21.5236 13.6973 21.5162 13.7072C21.5057 13.7213 21.4953 13.7398 21.4859 13.7566C21.4545 13.8125 21.4114 13.8726 21.3827 13.9337C21.3773 13.9452 21.3765 13.9588 21.3713 13.9701C21.3594 13.9959 21.3419 14.0194 21.3321 14.043C21.3159 14.0817 21.2911 14.1473 21.2527 14.1811C21.2481 14.1852 21.238 14.189 21.2338 14.194C21.2282 14.2007 21.2296 14.2118 21.2238 14.2193C21.2211 14.2228 21.2113 14.2244 21.207 14.2287C21.2005 14.2353 21.1975 14.2437 21.1921 14.2487C21.1787 14.2608 21.1603 14.266 21.1489 14.2787C21.1402 14.2882 21.1365 14.3019 21.1273 14.3139C21.1173 14.3268 21.1035 14.3384 21.0932 14.3514C21.0622 14.3909 21.0501 14.4389 21.0088 14.4576C20.9965 14.4631 20.9813 14.4613 20.9684 14.4651C20.9567 14.4543 20.966 14.4395 20.9633 14.4287C20.9616 14.4218 20.9544 14.4168 20.9525 14.4105C20.9481 14.3957 20.9417 14.3687 20.9419 14.3518C20.9421 14.335 20.9514 14.3215 20.9536 14.3014C20.9555 14.2843 20.9493 14.2625 20.9481 14.2434C20.9474 14.2339 20.9501 14.2239 20.9499 14.2136C20.9497 14.1969 20.9479 14.1885 20.9502 14.1685C20.9529 14.1453 20.9479 14.1228 20.9448 14.1012C20.9555 14.048 20.9614 14.0072 20.9789 13.9475C20.987 13.92 21.0014 13.8736 21.0158 13.843C21.0435 13.7837 21.067 13.7191 21.097 13.6572C21.107 13.6367 21.1228 13.6198 21.1326 13.5993C21.1383 13.5874 21.1392 13.5734 21.145 13.5613C21.1955 13.4552 21.2661 13.3666 21.3189 13.2572C21.3626 13.1679 21.4089 13.0879 21.4672 12.9902C21.4935 12.946 21.5162 12.8991 21.5432 12.8625C21.5638 12.8347 21.5942 12.7871 21.6161 12.7402C21.6248 12.7215 21.6246 12.7066 21.6476 12.7057C21.6712 12.6761 21.689 12.6427 21.7138 12.6175C21.72 12.6112 21.7297 12.608 21.7367 12.6019C21.7448 12.5948 21.7487 12.5841 21.7566 12.5776C21.7735 12.5638 21.8014 12.5516 21.8202 12.5257C21.8252 12.5189 21.8274 12.5117 21.8329 12.5044C21.8458 12.4876 21.8701 12.4461 21.8895 12.4415C21.8922 12.4399 21.8958 12.4407 21.8997 12.4426Z" fill="#DA687D"/>
</g>
</g>
<mask id="mask1_1_56" style="mask-type:luminance" maskUnits="userSpaceOnUse" x="20" y="13" width="2" height="3">
<path d="M20.5103 13.0788H21.7313V15.842H20.5103V13.0788Z" fill="white"/>
</mask>
<g mask="url(#mask1_1_56)">
<g opacity="0.699997">
<path fill-rule="evenodd" clip-rule="evenodd" d="M21.7009 13.0797C21.7224 13.1402 21.7248 13.208 21.7301 13.2755C21.7295 13.3424 21.7248 13.4186 21.7078 13.4925C21.7108 13.5079 21.7029 13.5271 21.7043 13.5432C21.6881 13.5667 21.6951 13.5823 21.6907 13.6018C21.7131 13.6279 21.7427 13.6521 21.7268 13.6904C21.7152 13.7169 21.6918 13.7229 21.6691 13.7367C21.6491 13.7962 21.6308 13.8699 21.6114 13.9337C21.6056 13.9535 21.6048 13.9773 21.5974 13.9955C21.5803 14.038 21.5627 14.0785 21.5475 14.1236C21.5345 14.1623 21.5364 14.2329 21.4959 14.2389C21.4768 14.2813 21.4653 14.3131 21.4436 14.353C21.4327 14.3598 21.4276 14.3493 21.4186 14.3534C21.4063 14.3677 21.4048 14.3866 21.3937 14.3986C21.3853 14.4079 21.3754 14.4056 21.3692 14.4146C21.3552 14.435 21.3571 14.464 21.3466 14.4904C21.3378 14.4987 21.3295 14.508 21.3221 14.5182C21.3184 14.5232 21.3148 14.5285 21.3116 14.5339L21.3068 14.5423L21.3045 14.5465L21.3035 14.5487L21.3034 14.5488V14.5488C21.3065 14.5414 21.3043 14.5468 21.3049 14.5451L21.3049 14.5452L21.3049 14.5452L21.3048 14.5455L21.3045 14.5461L21.304 14.5473C21.2822 14.5984 21.2774 14.6607 21.2448 14.7021C21.2343 14.7153 21.2175 14.7201 21.2091 14.7324C21.201 14.7442 21.1938 14.7609 21.1858 14.7745C21.1743 14.7941 21.1632 14.8193 21.1531 14.8422C21.1192 14.9189 21.0728 15.007 21.0415 15.0931C21.0356 15.1094 21.0351 15.1277 21.0294 15.1436C21.0163 15.1803 20.9975 15.2147 20.9859 15.2481C20.9663 15.3029 20.9398 15.3958 20.8918 15.4474C20.8861 15.4536 20.8741 15.4603 20.8689 15.4677C20.8621 15.4775 20.863 15.4922 20.8558 15.5032C20.8525 15.5083 20.841 15.5118 20.8358 15.5182C20.8278 15.528 20.8238 15.5398 20.8172 15.5471C20.8015 15.5653 20.7788 15.5742 20.7636 15.5921C20.7522 15.6057 20.7461 15.6242 20.7337 15.6411C20.7204 15.6591 20.7027 15.6756 20.6891 15.6937C20.6688 15.7227 20.65 15.7495 20.6319 15.7752C20.6134 15.8006 20.594 15.8225 20.568 15.834C20.5525 15.8409 20.5354 15.8378 20.5199 15.842C20.5088 15.8273 20.5226 15.8086 20.5218 15.7944C20.5212 15.7854 20.514 15.7787 20.513 15.7705C20.5108 15.7513 20.5086 15.717 20.5119 15.6959C20.515 15.6748 20.5291 15.6587 20.5342 15.6332C20.5381 15.6111 20.5331 15.5835 20.5334 15.5595C20.5335 15.5474 20.5375 15.5348 20.5382 15.5218C20.5394 15.5009 20.5379 15.4906 20.5423 15.4657C20.5473 15.4369 20.5412 15.4078 20.5385 15.3811C20.5518 15.3126 20.5599 15.2621 20.578 15.1823C20.5865 15.1455 20.6026 15.0853 20.6175 15.042C20.6323 15.0009 20.6458 14.9582 20.6596 14.915C20.6735 14.8713 20.6879 14.8263 20.7041 14.7823C20.715 14.7529 20.7321 14.7281 20.7439 14.697C20.7506 14.6794 20.7517 14.6598 20.7585 14.6418C20.7733 14.6027 20.7894 14.5632 20.8066 14.5275C20.8239 14.4924 20.8419 14.4579 20.8601 14.4233L20.8894 14.3668C20.8996 14.3487 20.9098 14.3305 20.9201 14.3123C20.9403 14.2757 20.9602 14.2383 20.979 14.1995C21.0111 14.1381 21.0438 14.0799 21.0786 14.0206C21.1135 13.963 21.1513 13.9032 21.192 13.8388C21.2282 13.7809 21.2623 13.7193 21.2969 13.6715C21.3228 13.635 21.3648 13.5726 21.392 13.5113C21.4027 13.4869 21.4029 13.4682 21.4294 13.465C21.4578 13.4252 21.4809 13.3807 21.506 13.3471C21.5127 13.3384 21.5236 13.3332 21.5313 13.3245C21.5402 13.3144 21.544 13.3007 21.5529 13.2912C21.5711 13.2708 21.6052 13.2513 21.622 13.2109C21.6267 13.2006 21.6282 13.1905 21.6335 13.1795C21.6459 13.1538 21.6678 13.0927 21.6891 13.0812C21.692 13.0783 21.6962 13.0783 21.7009 13.0797Z" fill="#DA687D"/>
</g>
</g>
<path d="M21.0218 13.7812C21.0218 13.7812 20.7718 14.7396 20.876 15.5312C20.8968 15.2812 21.0218 13.7812 21.0218 13.7812ZM21.3187 13.1336C21.2996 13.0665 21.1751 14.9923 21.2115 15.0597C21.2479 15.1272 21.4348 13.5418 21.3187 13.1336Z" fill="white"/>
<path d="M15.3518 9.44984C15.3518 9.44984 15.4976 10.2817 14.1434 10.7192C12.7893 11.1567 10.9228 11.5312 9.54777 13.177C8.17277 14.8228 7.92277 17.552 8.86027 19.3437C9.79777 21.1353 12.0894 23.3645 16.2144 23.3645C20.3394 23.3645 23.6161 20.1924 23.6161 18.0049C23.6161 16.8591 22.9865 17.1146 22.7688 18.1896C22.5722 19.1599 20.7561 22.7812 16.1936 22.7812C11.6311 22.7812 9.29777 20.0103 9.00612 17.6353C8.71443 15.2603 9.37796 13.2144 11.7738 11.9852C14.1696 10.7561 15.6901 11.2457 15.3567 9.45408" fill="#2D2B2C"/>
<path d="M14.2147 15.8645C14.2147 15.8645 13.9438 17.1146 12.6313 17.7187C11.3188 18.3229 10.7563 18.6562 10.5688 19.6979C11.0688 18.8646 12.5272 18.6979 13.3397 17.8854C14.1522 17.0729 14.2147 15.8645 14.2147 15.8645ZM14.5688 12.9687C14.5688 12.9687 15.6938 14.427 17.0272 13.7187C18.3605 13.0104 17.673 11.3645 17.6522 11.2604C17.6313 11.1562 17.798 13.0937 16.798 13.427C15.798 13.7604 14.5688 12.9687 14.5688 12.9687ZM11.6313 21.677C11.6313 21.677 12.3396 21.7187 12.8605 21.1354C13.3813 20.552 13.0897 19.6354 13.9438 19.302C14.798 18.9687 15.3813 19.177 15.3813 19.177C15.3813 19.177 13.8605 19.3854 13.7355 20.2604C13.6105 21.1354 13.4022 21.5312 13.0688 21.802C12.7355 22.0729 12.298 22.1145 12.298 22.1145L11.6313 21.677Z" fill="#2D2B2C"/>
<path d="M14.8447 17.1406C14.8447 17.1406 16.1111 16.9287 16.6885 15.6406C17.1624 14.5833 16.8447 13.6719 16.8447 13.6719L16.2041 13.7656C16.2041 13.7656 16.4697 14.5312 16.2666 15.2187C16.0635 15.9062 15.5947 16.7031 14.8447 17.1406ZM21.6607 14.2137C21.2088 15.3428 20.5428 16.1534 20.4649 16.1098C20.3245 16.0313 20.4537 15.0462 20.9057 13.9171C21.3575 12.7881 21.9192 11.9285 22.1277 12.0104C22.3362 12.0923 22.1126 13.0847 21.6607 14.2137ZM22.3169 11.9479C21.8031 11.6687 21.1718 12.712 20.652 13.9271C20.1323 15.1423 20.0726 16.1218 20.4721 16.297C21.0062 16.5312 21.5073 15.6006 22.027 14.3854C22.5468 13.1703 22.777 12.1979 22.3169 11.9479Z" fill="#2D2B2C"/>
<path d="M12.9854 18.0729C12.9854 18.0729 13.3082 19.0428 14.9229 18.8437C16.4437 18.6562 17.0975 18.0704 18.027 17.4895C18.6937 17.0729 18.652 17.2604 18.7354 17.2812C18.8187 17.302 19.1937 17.5312 19.5895 17.4895C19.6104 17.6979 19.402 17.5312 19.3187 17.7187C19.277 17.8437 19.6349 18.4319 20.152 18.3437C21.0062 18.1979 20.7666 17.8437 20.9333 17.4479C21.0999 17.052 21.2145 16.8437 20.3812 16.2812C19.7354 15.6979 19.3812 15.8437 19.0687 15.8437C18.7562 15.8437 17.9437 16.2812 17.3812 16.177C16.8187 16.0729 16.4645 15.8645 16.4645 15.8645L16.0895 16.2812C16.0895 16.2812 16.777 16.802 17.5687 16.6145C18.3604 16.427 18.9437 15.8229 19.6312 16.1354C20.3187 16.4479 20.4525 16.6573 20.6624 16.8124C20.902 16.9895 20.9229 17.177 20.7562 17.3437C20.5895 17.5104 20.7562 17.6354 20.6521 17.8229C20.5479 18.0104 20.0271 18.0937 20.0271 18.0937C20.0271 18.0937 20.5981 17.36 19.9021 17.302C19.4021 17.2604 19.0896 16.5937 18.3812 16.9479C17.364 17.4565 15.9229 18.3229 14.9229 18.427C13.9481 18.5285 13.5895 18.2187 13.3395 17.6354C13.0479 17.8854 12.9854 18.0729 12.9854 18.0729Z" fill="#2D2B2C"/>
<path d="M16.5684 18.2812C16.5684 18.2812 17.2768 18.6562 17.0684 19.4687C16.8601 20.2812 15.9226 20.8437 15.3184 21.1146C14.7143 21.3854 14.264 21.7436 14.7143 21.9687C15.0893 22.1562 15.2976 21.677 15.8393 21.5937C16.3809 21.5104 16.8601 21.7187 16.9018 22.0312C16.6726 21.9062 16.5059 21.9062 16.5059 21.9062C16.5059 21.9062 16.6934 22.0312 16.7143 22.2396C16.7351 22.4479 16.6934 22.3437 16.5684 22.3437C16.2559 22.3437 16.2143 22.0729 15.9434 22.1146C15.2559 22.1771 15.2143 22.4688 14.8393 22.5104C14.4643 22.5521 13.8393 22.3437 13.9226 21.8646C14.0059 21.3854 14.6518 21.0521 15.2559 20.8021C15.8601 20.5521 16.7768 19.7604 16.6518 19.0521C16.5268 18.3437 15.9851 18.4896 15.9851 18.4896L16.5684 18.2812ZM18.3445 12.3828C18.3445 12.3828 18.6414 12.5313 18.8289 13.2813C18.9539 13.5521 19.1205 13.7708 19.2664 13.8333C19.4122 13.8958 19.2039 13.9583 19.0997 13.9375C18.9955 13.9167 18.7768 13.8229 18.631 13.9479C18.4851 14.0729 18.131 14.4063 17.631 14.3229C17.131 14.2396 16.7039 13.9219 16.7039 13.9219C16.7039 13.9219 16.8914 14.75 18.006 14.6979C18.7785 14.6618 18.6101 14.2604 19.131 14.1771C19.6518 14.0938 19.5964 13.8306 19.4851 13.6146C19.308 13.2708 18.756 13.1875 18.6935 12.1823C18.631 12.0781 18.2403 12.1953 18.3445 12.3828ZM20.1255 17.6103C20.1725 17.6565 19.7559 18.5937 19.7559 18.5937C19.7559 18.5937 19.6726 18.8229 19.4493 18.7422C19.2208 18.6595 19.2801 18.4938 19.2801 18.4938L19.8122 17.5302C19.8122 17.5302 20.1044 17.5897 20.1255 17.6103ZM20.7109 16.276C20.69 16.3385 20.6067 16.5885 20.6067 16.5885L20.2664 16.3281L20.3567 16.1302L20.7109 16.276Z" fill="#2D2B2C"/>
<path d="M16.9019 18.0936C16.8394 18.3228 17.631 19.6561 18.1727 19.5728C18.7144 19.4894 18.7977 19.6561 18.631 19.7603C18.4644 19.8644 18.1727 19.9061 18.2144 20.0519C18.256 20.1978 18.3706 20.3436 18.0998 20.3019C17.829 20.2603 17.2769 19.9686 16.9435 19.4061C16.8394 19.7394 16.7977 19.8436 16.7977 19.8436C16.7977 19.8436 17.8602 20.9478 18.9435 20.4894C18.756 20.3436 18.2352 20.3853 18.6727 20.1353C19.1102 19.8853 19.4435 19.8019 19.6519 20.1978C19.756 20.1769 19.756 19.2603 18.381 19.3228C17.9019 19.2603 17.256 18.3228 17.256 17.8436C17.131 17.9686 16.9644 17.8644 16.9019 18.0936ZM21.1391 13.4842C21.1391 13.4842 20.8656 14.3056 20.9796 14.9842C21.0023 14.7699 21.1391 13.4842 21.1391 13.4842ZM21.4191 12.9983C21.4052 12.9464 21.2919 14.4283 21.319 14.4807C21.3461 14.5329 21.5036 13.3138 21.4191 12.9983ZM17.7769 12.1769C17.7769 12.1769 18.9539 12.0728 18.7456 11.604C18.1173 10.1903 16.9227 9.36442 14.7144 9.44776C15.9644 8.94776 17.0269 9.01025 18.0477 9.88526C18.5581 10.3228 18.7944 10.8553 18.9774 11.2629C19.2693 11.9129 19.1833 11.9737 18.8602 12.1561C18.4674 12.3778 17.7917 12.2364 17.7769 12.1769Z" fill="#2D2B2C"/>
<path d="M17.8973 12.3568C17.8973 12.3568 18.2212 12.5799 18.4755 12.3983C18.5924 12.278 18.6703 12.2123 18.3389 12.226L17.9356 12.2095C17.6562 12.1525 17.6617 12.2388 17.8973 12.3568Z" fill="#2D2B2C"/>
</svg>
