<svg width="32" height="32" viewBox="0 0 32 32" fill="none" xmlns="http://www.w3.org/2000/svg">
<path d="M7 1.5H20.5859C20.7185 1.50004 20.8457 1.55275 20.9395 1.64648L26.3535 7.06055C26.4472 7.15428 26.5 7.28151 26.5 7.41406V29C26.5 29.8284 25.8284 30.5 25 30.5H7C6.17157 30.5 5.5 29.8284 5.5 29V3C5.5 2.17157 6.17157 1.5 7 1.5Z" fill="white" stroke="#BBBBBB"/>
<path d="M20.5 2V5.1C20.5 5.94008 20.5 6.36012 20.6635 6.68099C20.8073 6.96323 21.0368 7.1927 21.319 7.33651C21.6399 7.5 22.0599 7.5 22.9 7.5H26" stroke="#BBBBBB"/>
<path d="M18 12V14H19.5859L20 14.4141V18L21 19L20 20V23.5859L19.5859 24H18V26H20.5L22 24.5V21L23 20V18L22 17V13.5L20.5 12H18Z" fill="#333333"/>
<path d="M14 12V14H12.4141L12 14.4141V18L11 19L12 20V23.5859L12.4141 24H14V26H11.5L10 24.5V21L9 20V18L10 17V13.5L11.5 12H14Z" fill="#333333"/>
</svg>
