<svg width="48" height="48" viewBox="0 0 48 48" fill="none" xmlns="http://www.w3.org/2000/svg">
<rect width="48" height="48" rx="4" fill="#ECEEF1"/>
<path d="M22.2797 7.33012C22.2797 7.33012 22.8276 8.49797 22.0493 9.7851C21.6603 10.4284 11.8533 12.5155 8.02517 17.828C5.68142 21.4999 2.08767 32.1249 13.572 39.1561C18.7283 41.8124 20.9158 41.7343 20.9158 41.7343C20.9158 41.7343 17.4783 39.3124 19.6658 37.6718C21.8533 36.0311 25.0564 35.2499 25.9158 32.9843C26.9314 33.7655 28.572 35.4061 30.1345 35.2499C29.9783 34.2343 29.5877 33.8436 30.8377 33.6874C32.0877 33.5311 32.7127 33.5311 32.7127 33.5311C32.7127 33.5311 31.5408 32.5936 30.2127 32.5155C28.8845 32.4374 26.3845 29.8593 26.4627 28.7655C28.1033 27.828 30.2127 26.2655 31.4627 26.7343C32.7127 27.203 33.9627 27.9843 34.197 28.6874C34.197 29.1561 33.9627 29.9374 34.9783 29.3124C35.9939 28.6874 35.7595 28.2968 36.1502 27.4374C36.5408 26.578 36.6189 26.4218 35.7595 25.7186C34.9002 25.0155 32.8689 23.3749 31.2283 23.8436C29.5877 24.3124 26.1502 25.6405 24.4314 23.9999C25.1345 22.4374 26.2283 19.9374 25.6814 18.2186C26.697 17.4374 27.8689 16.578 28.0252 15.1718C29.197 15.0155 31.697 14.3124 31.2283 13.0624C30.7595 11.8124 27.4319 6.25227 22.3538 7.34602" fill="white"/>
<path d="M38.494 20.0936C39.3534 17.828 40.7596 13.9999 39.4315 13.8436C38.1034 13.6874 36.619 17.2811 36.2284 18.2186C35.8378 19.1561 34.2753 23.8436 35.1346 24.4686C35.994 25.0936 38.494 20.0936 38.494 20.0936Z" fill="white"/>
<path d="M31.2284 13.9999C31.473 13.6156 31.6832 13.9495 30.6285 14.0276C29.5738 14.1058 28.3143 14.4327 28.0981 14.8908C27.6925 15.7503 27.5565 17.8671 26.0331 18.3359C25.955 18.8827 26.0331 20.1327 28.1815 20.3671C30.33 20.6015 30.4081 19.1952 31.6581 19.2343C32.9081 19.2734 32.7909 18.8046 32.3612 18.453C31.9315 18.1015 30.4472 15.7187 30.4472 14.9374C30.4472 14.1562 30.955 14.4296 31.2284 13.9999ZM12.0487 37.5546C12.0487 37.5546 11.3847 35.7968 13.3378 34.8593C15.2909 33.9218 17.0487 34.6639 17.4003 35.328C17.7519 35.9921 16.8144 38.6483 13.455 38.6874C12.6347 38.0233 12.0487 37.5546 12.0487 37.5546Z" fill="#DA687D"/>
<mask id="mask0_3_10932" style="mask-type:luminance" maskUnits="userSpaceOnUse" x="36" y="15" width="3" height="6">
<path d="M36.354 15.1016H38.7948V20.1627H36.354V15.1016Z" fill="white"/>
</mask>
<g mask="url(#mask0_3_10932)">
<g opacity="0.699997">
<path fill-rule="evenodd" clip-rule="evenodd" d="M38.7486 15.1064C38.7817 15.229 38.7719 15.3563 38.7685 15.4844C38.7653 15.6105 38.7535 15.7431 38.7214 15.8721C38.7296 15.9015 38.715 15.9357 38.72 15.9659C38.6879 16.0062 38.7048 16.0365 38.6978 16.0717C38.7494 16.1244 38.8167 16.1743 38.7878 16.2406C38.7675 16.2872 38.7195 16.2958 38.6734 16.3183C38.643 16.428 38.618 16.5605 38.5931 16.6815C38.5855 16.7187 38.5896 16.7637 38.5785 16.7976C38.5524 16.8765 38.5245 16.9521 38.5026 17.039C38.4841 17.1128 38.5053 17.249 38.4196 17.2586C38.3865 17.3405 38.3678 17.4024 38.3285 17.4797C38.3062 17.4924 38.2932 17.4714 38.2745 17.479C38.2507 17.5062 38.2515 17.5433 38.2294 17.566C38.2121 17.5839 38.1901 17.5787 38.1775 17.5961C38.1491 17.6351 38.1567 17.693 38.1366 17.7447C38.1 17.7759 38.0693 17.8154 38.047 17.8601C38.001 17.9523 37.9925 18.0696 37.9227 18.1408C37.9008 18.1632 37.8632 18.1694 37.8437 18.1914C37.8251 18.2124 37.8082 18.2433 37.7899 18.268C37.7635 18.3033 37.7376 18.3496 37.7139 18.3916C37.6355 18.5312 37.5278 18.6815 37.456 18.8341C37.4425 18.863 37.4405 18.897 37.4276 18.9251C37.3978 18.9898 37.3539 19.0485 37.3294 19.1074C37.2891 19.2042 37.2271 19.3683 37.1311 19.4527C37.1195 19.463 37.0942 19.4726 37.0838 19.4851C37.0698 19.5019 37.0732 19.5294 37.0588 19.5482C37.0521 19.557 37.0275 19.561 37.0168 19.5718C37.0006 19.5883 36.9929 19.6094 36.9794 19.6217C36.9461 19.652 36.9001 19.6651 36.8715 19.6966C36.8499 19.7205 36.8405 19.7547 36.8175 19.7847C36.7926 19.8169 36.758 19.8459 36.7323 19.8786C36.6546 19.9773 36.6245 20.0973 36.5212 20.1439C36.4905 20.1578 36.4525 20.1533 36.4203 20.1627C36.3911 20.1358 36.4143 20.0988 36.4076 20.0718C36.4033 20.0544 36.3853 20.0419 36.3806 20.0262C36.3694 19.9892 36.3535 19.9219 36.354 19.8795C36.3546 19.8375 36.3778 19.8037 36.3833 19.7536C36.3881 19.7107 36.3726 19.6562 36.3695 19.6086C36.3678 19.5847 36.3745 19.5598 36.3741 19.5339C36.3735 19.4923 36.3689 19.4713 36.3747 19.4212C36.3814 19.3632 36.3689 19.307 36.3614 19.2531C36.3881 19.1199 36.4028 19.0181 36.4465 18.8688C36.4667 18.8 36.5028 18.6839 36.5387 18.6074C36.6079 18.4594 36.6668 18.2977 36.7418 18.143C36.7668 18.0917 36.8063 18.0495 36.8308 17.9983C36.845 17.9685 36.8473 17.9336 36.8617 17.9033C36.988 17.6379 37.1646 17.4164 37.2964 17.1431C37.4057 16.9198 37.5214 16.7198 37.6671 16.4755C37.7329 16.365 37.7896 16.2476 37.8573 16.1563C37.9089 16.0867 37.9848 15.9678 38.0396 15.8504C38.0614 15.8038 38.0607 15.7665 38.1182 15.7643C38.1774 15.6902 38.2218 15.6066 38.2837 15.5437C38.2993 15.5279 38.3235 15.52 38.341 15.5048C38.3613 15.4869 38.3709 15.4602 38.3908 15.444C38.4331 15.4095 38.5027 15.379 38.5498 15.3144C38.5623 15.2972 38.5677 15.2791 38.5815 15.2611C38.6139 15.219 38.6746 15.1153 38.7229 15.1038C38.7298 15.0998 38.7388 15.1016 38.7486 15.1064Z" fill="#DA687D"/>
</g>
</g>
<mask id="mask1_3_10932" style="mask-type:luminance" maskUnits="userSpaceOnUse" x="35" y="16" width="4" height="8">
<path d="M35.2749 16.6972H38.3276V23.6052H35.2749V16.6972Z" fill="white"/>
</mask>
<g mask="url(#mask1_3_10932)">
<g opacity="0.699997">
<path fill-rule="evenodd" clip-rule="evenodd" d="M38.2515 16.6994C38.3052 16.8506 38.3112 17.0201 38.3245 17.1889C38.323 17.3561 38.3114 17.5466 38.2687 17.7313C38.2763 17.7698 38.2565 17.8179 38.2601 17.8581C38.2196 17.9169 38.2371 17.9558 38.2259 18.0047C38.282 18.0699 38.3561 18.1304 38.3162 18.2262C38.2872 18.2923 38.2288 18.3073 38.172 18.3418C38.122 18.4906 38.0762 18.6748 38.0278 18.8344C38.0132 18.884 38.0112 18.9434 37.9929 18.9888C37.9501 19.0952 37.9061 19.1963 37.8681 19.3092C37.8356 19.4059 37.8403 19.5825 37.739 19.5974C37.6914 19.7033 37.6626 19.7828 37.6083 19.8826C37.5809 19.8996 37.5683 19.8734 37.5457 19.8837C37.5151 19.9193 37.5112 19.9667 37.4836 19.9966C37.4626 20.0198 37.4379 20.0142 37.4222 20.0367C37.3872 20.0876 37.3921 20.1601 37.3658 20.2262C37.3437 20.2469 37.3231 20.2702 37.3045 20.2955C37.2952 20.3082 37.2863 20.3213 37.2782 20.335L37.2662 20.3558L37.2606 20.3664L37.2579 20.3718L37.2577 20.3721V20.3722C37.2654 20.3536 37.2599 20.367 37.2616 20.3629L37.2615 20.363L37.2615 20.3631L37.2612 20.3639L37.2605 20.3654L37.2593 20.3683C37.2048 20.496 37.1928 20.6519 37.1112 20.7554C37.0851 20.7883 37.0431 20.8005 37.022 20.8312C37.0018 20.8605 36.9837 20.9025 36.9637 20.9365C36.9351 20.9853 36.9073 21.0483 36.882 21.1055C36.7972 21.2974 36.6812 21.5176 36.6029 21.7329C36.5883 21.7737 36.5869 21.8193 36.5729 21.8592C36.5399 21.9508 36.493 22.0368 36.464 22.1203C36.4151 22.2573 36.3488 22.4896 36.2288 22.6185C36.2146 22.6341 36.1845 22.6509 36.1716 22.6693C36.1544 22.6939 36.1567 22.7307 36.1388 22.7581C36.1305 22.7709 36.1017 22.7796 36.0887 22.7956C36.0688 22.8201 36.0587 22.8495 36.0422 22.868C36.0029 22.9134 35.9462 22.9355 35.9083 22.9803C35.8798 23.0143 35.8644 23.0607 35.8335 23.1028C35.8002 23.148 35.7561 23.1891 35.7219 23.2343C35.6712 23.3068 35.6242 23.3738 35.5791 23.438C35.5329 23.5016 35.4842 23.5563 35.4192 23.5852C35.3805 23.6023 35.3378 23.5946 35.299 23.6052C35.2714 23.5683 35.3057 23.5216 35.3037 23.4862C35.3023 23.4637 35.2842 23.4468 35.2819 23.4263C35.2764 23.3783 35.2708 23.2926 35.2791 23.2398C35.2869 23.187 35.3219 23.1468 35.3347 23.0832C35.3445 23.0279 35.3321 22.9589 35.3328 22.8989C35.3331 22.8687 35.3429 22.8371 35.3447 22.8047C35.3477 22.7525 35.3441 22.7266 35.3549 22.6644C35.3676 22.5924 35.3522 22.5196 35.3454 22.4528C35.3787 22.2816 35.399 22.1555 35.4443 21.9558C35.4656 21.8639 35.5057 21.7133 35.5431 21.6051C35.58 21.5024 35.6137 21.3957 35.6483 21.2877C35.6831 21.1783 35.7191 21.0658 35.7596 20.9558C35.7867 20.8824 35.8296 20.8203 35.8591 20.7426C35.8758 20.6985 35.8786 20.6495 35.8954 20.6046C35.9326 20.5069 35.9728 20.4082 36.0158 20.319C36.059 20.2312 36.1041 20.1449 36.1495 20.0584L36.2228 19.9172C36.2483 19.8719 36.2738 19.8265 36.2994 19.7809C36.3501 19.6893 36.3997 19.5959 36.4468 19.4989C36.527 19.3453 36.6087 19.1998 36.6958 19.0516C36.783 18.9076 36.8774 18.7581 36.9794 18.5972C37.0698 18.4524 37.155 18.2984 37.2416 18.1788C37.3062 18.0876 37.4114 17.9317 37.4793 17.7784C37.506 17.7174 37.5065 17.6705 37.5728 17.6626C37.6437 17.563 37.7016 17.4519 37.7644 17.3678C37.7811 17.3462 37.8083 17.333 37.8275 17.3114C37.8498 17.2862 37.8594 17.2519 37.8816 17.2282C37.9271 17.1772 38.0122 17.1284 38.0543 17.0275C38.0661 17.0016 38.0697 16.9765 38.083 16.9489C38.114 16.8847 38.1688 16.7318 38.2221 16.7032C38.2293 16.6959 38.2397 16.6959 38.2515 16.6994Z" fill="#DA687D"/>
</g>
</g>
<path d="M36.5538 18.453C36.5538 18.453 35.9288 20.8489 36.1892 22.828C36.2413 22.203 36.5538 18.453 36.5538 18.453ZM37.296 16.8339C37.2484 16.6662 36.9369 21.4807 37.0279 21.6492C37.119 21.8179 37.5863 17.8543 37.296 16.8339Z" fill="white"/>
<path d="M22.3789 7.62472C22.3789 7.62472 22.7435 9.7044 19.358 10.7981C15.9727 11.8919 11.3064 12.828 7.86895 16.9426C4.43145 21.0572 3.80645 27.88 6.1502 32.3593C8.49395 36.8384 14.2231 42.4114 24.5356 42.4114C34.8481 42.4114 43.0397 34.4812 43.0397 29.0125C43.0397 26.1479 41.4658 26.7866 40.9214 29.4741C40.4301 31.8998 35.8898 40.953 24.4836 40.953C13.0773 40.953 7.24395 34.0259 6.5148 28.0884C5.78559 22.1509 7.44441 17.0361 13.434 13.9632C19.4236 10.8903 23.2247 12.1145 22.3913 7.63531" fill="#2D2B2C"/>
<path d="M19.5358 23.6613C19.5358 23.6613 18.8586 26.7864 15.5774 28.2967C12.2961 29.8072 10.8899 30.6405 10.4211 33.2447C11.6711 31.1614 15.317 30.7447 17.3483 28.7134C19.3795 26.6822 19.5358 23.6613 19.5358 23.6613ZM20.4211 16.4218C20.4211 16.4218 23.2336 20.0676 26.567 18.2968C29.9003 16.5259 28.1816 12.4114 28.1295 12.1509C28.0774 11.8905 28.494 16.7343 25.994 17.5676C23.494 18.4009 20.4211 16.4218 20.4211 16.4218ZM13.0773 38.1925C13.0773 38.1925 14.8481 38.2967 16.1502 36.8384C17.4523 35.38 16.7232 33.0884 18.8586 32.255C20.994 31.4217 22.4523 31.9425 22.4523 31.9425C22.4523 31.9425 18.6502 32.4634 18.3377 34.6509C18.0252 36.8384 17.5044 37.828 16.6711 38.505C15.8377 39.1822 14.744 39.2863 14.744 39.2863L13.0773 38.1925Z" fill="#2D2B2C"/>
<path d="M21.1111 26.8514C21.1111 26.8514 24.2769 26.3215 25.7205 23.1014C26.9054 20.4582 26.1111 18.1796 26.1111 18.1796L24.5095 18.4139C24.5095 18.4139 25.1736 20.328 24.6658 22.0468C24.158 23.7655 22.9861 25.7577 21.1111 26.8514ZM38.151 19.5342C37.0212 22.3569 35.3562 24.3833 35.1615 24.2744C34.8105 24.0781 35.1336 21.6153 36.2634 18.7927C37.3931 15.97 38.7972 13.8212 39.3184 14.026C39.8397 14.2307 39.2807 16.7116 38.151 19.5342ZM39.7915 13.8697C38.507 13.1717 36.9287 15.7798 35.6294 18.8177C34.3299 21.8556 34.1808 24.3043 35.1794 24.7424C36.5147 25.328 37.7675 23.0014 39.0669 19.9635C40.3662 16.9256 40.9419 14.4947 39.7915 13.8697Z" fill="#2D2B2C"/>
<path d="M16.4626 29.1821C16.4626 29.1821 17.2698 31.6069 21.3064 31.1092C25.1085 30.6404 26.7431 29.176 29.0668 27.7237C30.7335 26.6821 30.6293 27.1509 30.8376 27.2029C31.046 27.255 31.9835 27.8279 32.973 27.7237C33.0251 28.2446 32.5044 27.8279 32.296 28.2967C32.1919 28.6092 33.0866 30.0798 34.3793 29.8592C36.5148 29.4946 35.9158 28.6092 36.3325 27.6196C36.7491 26.6301 37.0356 26.1092 34.9523 24.7029C33.3376 23.2446 32.4523 23.6093 31.671 23.6093C30.8898 23.6093 28.8585 24.7029 27.4523 24.4425C26.046 24.1821 25.1605 23.6613 25.1605 23.6613L24.2231 24.7029C24.2231 24.7029 25.9418 26.005 27.921 25.5362C29.9001 25.0675 31.3586 23.5571 33.0773 24.3384C34.7961 25.1196 35.1306 25.6432 35.6554 26.031C36.2544 26.4739 36.3064 26.9425 35.8898 27.3592C35.473 27.7759 35.8898 28.0884 35.6294 28.5571C35.369 29.0259 34.0669 29.2342 34.0669 29.2342C34.0669 29.2342 35.4945 27.4 33.7544 27.2551C32.5044 27.1509 31.7232 25.4842 29.9523 26.3696C27.4094 27.6413 23.8064 29.8071 21.3064 30.0675C18.8694 30.3212 17.973 29.5467 17.348 28.0884C16.6189 28.7134 16.4626 29.1821 16.4626 29.1821Z" fill="#2D2B2C"/>
<path d="M25.4211 29.703C25.4211 29.703 27.192 30.6405 26.6711 32.6717C26.1502 34.703 23.8065 36.1092 22.2961 36.7864C20.7857 37.4634 19.6599 38.3588 20.7857 38.9217C21.7232 39.3905 22.2441 38.1925 23.5982 37.9842C24.9523 37.7759 26.1503 38.2967 26.2545 39.078C25.6815 38.7655 25.2648 38.7655 25.2648 38.7655C25.2648 38.7655 25.7336 39.078 25.7857 39.5989C25.8377 40.1197 25.7336 39.8592 25.4211 39.8592C24.6398 39.8592 24.5357 39.1822 23.8586 39.2864C22.1398 39.4427 22.0357 40.1719 21.0982 40.2759C20.1607 40.3802 18.5982 39.8592 18.8065 38.6614C19.0148 37.4634 20.6295 36.6302 22.1398 36.0052C23.6502 35.3802 25.942 33.4009 25.6295 31.6302C25.317 29.8592 23.9627 30.2239 23.9627 30.2239L25.4211 29.703ZM29.8612 14.9569C29.8612 14.9569 30.6034 15.328 31.0722 17.203C31.3847 17.8801 31.8013 18.427 32.1659 18.5832C32.5305 18.7395 32.0097 18.8957 31.7493 18.8436C31.4888 18.7915 30.9419 18.5571 30.5774 18.8696C30.2128 19.1821 29.3274 20.0155 28.0774 19.8071C26.8274 19.5989 25.7597 18.8046 25.7597 18.8046C25.7597 18.8046 26.2284 20.8749 29.0149 20.7446C30.9462 20.6544 30.5253 19.6509 31.8274 19.4426C33.1294 19.2343 32.9909 18.5763 32.7128 18.0364C32.27 17.177 30.8899 16.9686 30.7336 14.4556C30.5774 14.1952 29.6008 14.4882 29.8612 14.9569ZM34.3137 28.0257C34.4313 28.1411 33.3899 30.4842 33.3899 30.4842C33.3899 30.4842 33.1815 31.0572 32.6231 30.8553C32.052 30.6487 32.2003 30.2344 32.2003 30.2344L33.5304 27.8253C33.5304 27.8253 34.2611 27.9742 34.3137 28.0257ZM35.7772 24.69C35.725 24.8463 35.5168 25.4713 35.5168 25.4713L34.6659 24.8202L34.8918 24.3255L35.7772 24.69Z" fill="#2D2B2C"/>
<path d="M26.2544 29.2342C26.0982 29.8071 28.0773 33.1406 29.4315 32.9321C30.7857 32.7239 30.994 33.1406 30.5773 33.4009C30.1607 33.6614 29.4315 33.7656 29.5357 34.1301C29.6398 34.4946 29.9263 34.8593 29.2492 34.7551C28.5722 34.6509 27.1919 33.9217 26.3586 32.5154C26.0982 33.3489 25.994 33.6092 25.994 33.6092C25.994 33.6092 28.6503 36.3696 31.3586 35.2239C30.8898 34.8592 29.5878 34.9634 30.6815 34.3384C31.7753 33.7134 32.6086 33.5051 33.1294 34.4946C33.3898 34.4426 33.3898 32.1509 29.9523 32.3071C28.7544 32.1509 27.1398 29.8071 27.1398 28.6092C26.8273 28.9217 26.4107 28.6612 26.2544 29.2342ZM36.8474 17.7108C36.8474 17.7108 36.1638 19.7644 36.4486 21.4608C36.5056 20.9251 36.8474 17.7108 36.8474 17.7108ZM37.5474 16.496C37.5127 16.3663 37.2294 20.0711 37.2972 20.2019C37.365 20.3326 37.7588 17.2848 37.5474 16.496ZM28.4419 14.4425C28.4419 14.4425 31.3846 14.1821 30.8638 13.0103C29.2931 9.47597 26.3065 7.41128 20.7856 7.61964C23.9106 6.36964 26.5669 6.52587 29.119 8.71339C30.395 9.80713 30.9857 11.1384 31.4432 12.1574C32.1729 13.7824 31.958 13.9345 31.1503 14.3904C30.1683 14.9447 28.4791 14.5912 28.4419 14.4425Z" fill="#2D2B2C"/>
<path d="M28.743 14.8921C28.743 14.8921 29.5527 15.4497 30.1885 14.9957C30.4808 14.695 30.6755 14.5308 29.847 14.565L28.8388 14.5237C28.1403 14.3812 28.1541 14.597 28.743 14.8921Z" fill="#2D2B2C"/>
</svg>
